<svg width="32" height="32" viewBox="0 0 32 32" xmlns="http://www.w3.org/2000/svg">
<path d="M28.4975 22.24C27.8075 23.7725 27.475 24.4575 26.5875 25.81C25.345 27.7 23.5925 30.06 21.4275 30.075C19.5 30.0925 19.0025 28.8175 16.385 28.84C13.77 28.8525 13.225 30.1 11.295 30.08C9.12753 30.06 7.47003 27.935 6.22753 26.0475C2.75253 20.755 2.38503 14.55 4.53253 11.25C6.05253 8.91 8.45503 7.535 10.7125 7.535C13.0125 7.535 14.4575 8.7975 16.3575 8.7975C18.2025 8.7975 19.325 7.5325 21.985 7.5325C23.995 7.5325 26.12 8.62751 27.64 10.5175C22.67 13.2425 23.4775 20.34 28.4975 22.24ZM19.965 5.42C20.9325 4.1775 21.6675 2.425 21.4 0.639999C19.8225 0.7475 17.9775 1.755 16.9 3.06C15.9225 4.25 15.1125 6.015 15.4275 7.7225C17.15 7.7775 18.9325 6.75 19.965 5.42Z" />
</svg>
