<svg width="32" height="32" viewBox="0 0 32 32" xmlns="http://www.w3.org/2000/svg">
<path d="M29.46 14.06C29.6334 13.3873 29.7175 12.6947 29.71 12C29.71 9.87827 28.8671 7.84344 27.3668 6.34315C25.8665 4.84285 23.8317 4 21.71 4H21.62C19.5037 4.01422 17.4793 4.86642 15.99 6.37C14.4512 4.9055 12.4042 4.09529 10.28 4.11C9.06045 4.1249 7.85977 4.41298 6.76625 4.95306C5.67273 5.49313 4.71417 6.27146 3.96109 7.2308C3.20801 8.19014 2.67955 9.3061 2.41458 10.4966C2.14961 11.6871 2.15487 12.9218 2.42997 14.11C2.29611 14.2029 2.18696 14.327 2.11202 14.4717C2.03708 14.6163 1.99862 14.7771 1.99997 14.94C1.99997 15.2052 2.10533 15.4596 2.29287 15.6471C2.4804 15.8346 2.73476 15.94 2.99997 15.94H3.04997C3.45464 16.7477 3.98831 17.484 4.62997 18.12L5.05997 18.51C5.10121 18.5678 5.14811 18.6214 5.19997 18.67L15.42 28.67C15.6062 28.8547 15.8576 28.9589 16.12 28.96C16.2523 28.9594 16.3832 28.9326 16.505 28.8812C16.6269 28.8297 16.7374 28.7545 16.83 28.66L26.83 18.43C26.9374 18.319 27.0193 18.1859 27.07 18.04L27.39 17.73C27.9125 17.1951 28.3569 16.5892 28.71 15.93H28.99C29.2552 15.93 29.5095 15.8246 29.6971 15.6371C29.8846 15.4496 29.99 15.1952 29.99 14.93C29.9877 14.7508 29.9373 14.5755 29.8441 14.4225C29.7508 14.2694 29.6182 14.1442 29.46 14.06ZM5.98997 7.97C6.55517 7.39259 7.2286 6.9322 7.9718 6.61516C8.71499 6.29812 9.51338 6.13063 10.3213 6.12228C11.1293 6.11392 11.931 6.26485 12.6805 6.56645C13.4301 6.86805 14.113 7.3144 14.69 7.88C14.8653 8.04871 15.029 8.22913 15.18 8.42C15.2246 8.4812 15.2748 8.53811 15.33 8.59C15.534 8.76628 15.7975 8.85819 16.0669 8.84705C16.3362 8.8359 16.5912 8.72253 16.78 8.53L16.89 8.4C17.0275 8.20114 17.185 8.01685 17.36 7.85C17.9152 7.27826 18.5787 6.82285 19.3118 6.51036C20.045 6.19788 20.833 6.03458 21.63 6.03H21.69C22.6424 6.02223 23.5829 6.24131 24.4339 6.66911C25.2848 7.0969 26.0217 7.72113 26.5836 8.49016C27.1454 9.2592 27.5162 10.1509 27.6651 11.0917C27.814 12.0324 27.7368 12.995 27.44 13.9L18.25 13.79C18.0537 13.7902 17.8618 13.8481 17.6982 13.9566C17.5346 14.065 17.4065 14.2193 17.33 14.4L16.99 13.07C16.9482 12.9182 16.8712 12.7784 16.7652 12.6619C16.6592 12.5455 16.5272 12.4558 16.38 12.4C16.2305 12.3445 16.0699 12.3255 15.9116 12.3446C15.7533 12.3637 15.6019 12.4204 15.47 12.51L14.21 13.36L12.81 9.36C12.7497 9.18736 12.6433 9.03455 12.5022 8.91818C12.3612 8.80182 12.1909 8.72636 12.01 8.7C11.8225 8.6643 11.6287 8.68299 11.4515 8.75387C11.2743 8.82475 11.1211 8.94485 11.01 9.1L7.55997 13.79L4.43997 13.87C4.16082 12.8368 4.15702 11.7486 4.42895 10.7135C4.70088 9.67842 5.23907 8.73256 5.98997 7.97ZM25.99 16.32C25.8206 16.4983 25.6366 16.6622 25.44 16.81C25.2404 16.955 25.1015 17.1687 25.05 17.41L16.12 26.53L6.82997 17.44C6.76474 17.3119 6.67265 17.1993 6.55997 17.11C6.37855 16.9771 6.20801 16.83 6.04997 16.67C5.80195 16.4214 5.57765 16.1502 5.37997 15.86L8.09997 15.79C8.25267 15.7858 8.40236 15.7466 8.53757 15.6755C8.67278 15.6045 8.78991 15.5034 8.87997 15.38L11.51 11.79L12.71 15.24C12.7605 15.3847 12.8435 15.5159 12.9528 15.6234C13.062 15.7309 13.1945 15.8118 13.34 15.86C13.486 15.9091 13.6414 15.9239 13.794 15.9031C13.9467 15.8822 14.0924 15.8264 14.22 15.74L15.4 14.94L16.19 17.84C16.2449 18.045 16.3637 18.2272 16.5291 18.3603C16.6945 18.4933 16.8979 18.5703 17.11 18.58H17.16C17.3614 18.5794 17.558 18.518 17.7239 18.4038C17.8899 18.2896 18.0175 18.1279 18.09 17.94L18.92 15.79L26.33 15.88C26.2257 16.0334 26.1121 16.1804 25.99 16.32Z" />
</svg>
