<svg width="32" height="32" viewBox="0 0 32 32" fill="none" xmlns="http://www.w3.org/2000/svg">
<path d="M16 15.0588C20.4183 15.0588 24 11.6878 24 7.52941C24 3.37103 20.4183 0 16 0C11.5817 0 8 3.37103 8 7.52941C8 11.6878 11.5817 15.0588 16 15.0588Z" fill="#0B0E23"/>
<path d="M32 32V24.4706C32 23.3412 31.4 22.2118 30.4 21.4588C28.2 19.7647 25.4 18.6353 22.6 17.8824C20.6 17.3176 18.4 16.9412 16 16.9412C13.8 16.9412 11.6 17.3176 9.4 17.8824C6.6 18.6353 3.8 19.9529 1.6 21.4588C0.6 22.2118 0 23.3412 0 24.4706V32H32Z" fill="#0B0E23"/>
</svg>
