<svg width="80" height="36" viewBox="0 0 80 36" fill="none" xmlns="http://www.w3.org/2000/svg">
<path d="M42.7305 0.324783C41.1 0.756134 39.8059 1.56809 39.0295 2.68452C38.6671 3.21737 37.3989 5.75472 36.1825 8.34283C34.966 10.9309 32.6367 15.828 30.9803 19.2281C29.3239 22.6281 27.978 25.4446 27.978 25.4953C27.978 25.5461 26.8133 27.8805 25.3899 30.6716C23.9664 33.488 22.8017 35.8224 22.8017 35.8731C22.8017 35.9493 25.364 36 28.4956 36C31.6273 36 34.1896 35.8985 34.1896 35.797C34.1896 35.6701 36.4931 30.7477 39.3142 24.8103C42.1611 18.8982 44.7493 13.3668 45.0857 12.5548L45.7069 11.0578L46.8457 13.4429C47.4927 14.7623 50.1327 20.3445 52.7208 25.8506L57.4571 35.8731L62.9182 35.9493C65.8945 35.9746 68.3533 35.9493 68.3533 35.8478C68.3533 35.6448 66.9039 32.4984 64.4452 27.2969C58.8806 15.625 53.8078 4.71441 53.342 3.52185C52.6691 1.77108 51.2714 0.781506 48.7351 0.248661C46.9751 -0.106567 44.2317 -0.081192 42.7305 0.324783Z" fill="url(#paint0_linear_132_140)"/>
<path d="M7.76448 0.806877C4.6328 1.84719 2.01876 4.28306 0.750566 7.32788C0.15529 8.69805 0.15529 8.8503 0.0776448 22.349L0 36H5.71983H11.4138V30.1387V24.3028L16.9007 24.3535L22.4135 24.3789L24.6652 19.8624C25.9075 17.3504 26.9169 15.2444 26.9427 15.1176C26.9427 15.0161 23.4487 14.9399 19.1783 14.9399H11.3879L11.4655 12.631L11.5432 10.2966L20.2135 10.2712L28.8839 10.2458L28.9615 5.22188L29.0133 0.223286H19.2559C9.78324 0.248661 9.4209 0.248661 7.76448 0.806877Z" fill="url(#paint1_linear_132_140)"/>
<path d="M69.1298 17.5281C69.1556 27.0685 69.2074 35.1119 69.2851 35.4164C69.4403 36 69.4403 36 74.7202 36H80V18.1116V0.223286H74.5649H69.1298V17.5281Z" fill="url(#paint2_linear_132_140)"/>
<path d="M43.4552 23.9983C43.2222 24.049 42.9375 24.3535 42.834 24.658C42.7305 24.9371 41.8505 26.8909 40.8929 28.9461C39.9094 31.0268 39.1071 32.8283 39.1071 32.9552C39.1071 33.1074 41.5399 33.2089 45.7069 33.2089C50.8055 33.2089 52.3067 33.1328 52.3067 32.879C52.3067 32.7268 51.3749 30.6462 50.262 28.261L48.2433 23.9729L46.0692 23.9475C44.8787 23.9222 43.6881 23.9475 43.4552 23.9983Z" fill="url(#paint3_linear_132_140)"/>
<defs>
<linearGradient id="paint0_linear_132_140" x1="23.3711" y1="18" x2="70.0627" y2="18.1621" gradientUnits="userSpaceOnUse">
<stop stop-color="#50EAD3"/>
<stop offset="1" stop-color="#00FF91"/>
</linearGradient>
<linearGradient id="paint1_linear_132_140" x1="0.362666" y1="18.1116" x2="30.1022" y2="18.1778" gradientUnits="userSpaceOnUse">
<stop stop-color="#50EAD3"/>
<stop offset="1" stop-color="#00FF91"/>
</linearGradient>
<linearGradient id="paint2_linear_132_140" x1="69.2656" y1="18.1116" x2="80.4081" y2="18.1209" gradientUnits="userSpaceOnUse">
<stop stop-color="#50EAD3"/>
<stop offset="1" stop-color="#00FF91"/>
</linearGradient>
<linearGradient id="paint3_linear_132_140" x1="39.2721" y1="28.5732" x2="52.8019" y2="28.6261" gradientUnits="userSpaceOnUse">
<stop stop-color="#50EAD3"/>
<stop offset="1" stop-color="#00FF91"/>
</linearGradient>
</defs>
</svg>
