<svg width="32" height="32" viewBox="0 0 32 32" xmlns="http://www.w3.org/2000/svg">
<path d="M15.6667 16.222C14.2 16.222 12.9814 15.7369 12.011 14.7667C11.0408 13.7962 10.5557 12.5777 10.5557 11.111C10.5557 9.64433 11.0408 8.42578 12.011 7.45533C12.9814 6.48511 14.2 6 15.6667 6C17.1333 6 18.3519 6.48511 19.3223 7.45533C20.2926 8.42578 20.7777 9.64433 20.7777 11.111C20.7777 12.5777 20.2926 13.7962 19.3223 14.7667C18.3519 15.7369 17.1333 16.222 15.6667 16.222ZM5 26.911V23.5777C5 22.7628 5.20556 22.0498 5.61667 21.4387C6.02778 20.8276 6.563 20.3628 7.22233 20.0443C8.67411 19.3703 10.0926 18.8648 11.4777 18.5277C12.863 18.1906 14.2593 18.022 15.6667 18.022C17.074 18.022 18.4666 18.1942 19.8443 18.5387C21.2221 18.8831 22.6363 19.3864 24.087 20.0487C24.7657 20.3691 25.3097 20.8337 25.719 21.4423C26.1286 22.051 26.3333 22.7628 26.3333 23.5777V26.911H5ZM7.22233 24.6887H24.111V23.5777C24.111 23.2592 24.0203 22.9592 23.839 22.6777C23.6574 22.3961 23.4297 22.185 23.1557 22.0443C21.8074 21.385 20.537 20.9202 19.3443 20.65C18.1519 20.3796 16.926 20.2443 15.6667 20.2443C14.4073 20.2443 13.174 20.3796 11.9667 20.65C10.7593 20.9202 9.489 21.385 8.15567 22.0443C7.88144 22.185 7.65733 22.3961 7.48333 22.6777C7.30933 22.9592 7.22233 23.2592 7.22233 23.5777V24.6887ZM15.6667 14C16.4889 14 17.1759 13.724 17.7277 13.172C18.2797 12.6202 18.5557 11.9332 18.5557 11.111C18.5557 10.2888 18.2797 9.60178 17.7277 9.05C17.1759 8.498 16.4889 8.222 15.6667 8.222C14.8444 8.222 14.1574 8.498 13.6057 9.05C13.0537 9.60178 12.7777 10.2888 12.7777 11.111C12.7777 11.9332 13.0537 12.6202 13.6057 13.172C14.1574 13.724 14.8444 14 15.6667 14Z" />
</svg>
