<svg width="32" height="32" viewBox="0 0 32 32" xmlns="http://www.w3.org/2000/svg">
<path d="M31.5471 13.5248C31.2546 12.8344 30.8321 12.2124 30.3101 11.6903C29.7876 11.1683 29.166 10.7454 28.4757 10.4533C27.7849 10.1613 27.0259 10 26.2294 10C25.432 10 24.673 10.1613 23.9822 10.4533C23.2914 10.7454 22.6702 11.1683 22.1478 11.6903C21.2271 12.4371 20.8416 13.3291 20.233 13.367C19.0786 13.2389 18.1821 12.9437 16.0002 12.9437C13.8187 12.9437 12.9219 13.2389 11.7677 13.367C11.1587 13.3291 10.7737 12.4371 9.85275 11.6903C9.3305 11.1683 8.70869 10.7454 8.01831 10.4533C7.32756 10.1613 6.56869 10 5.77156 10C4.97463 10 4.21556 10.1613 3.52506 10.4533C2.8345 10.7454 2.21294 11.1683 1.69069 11.6903C1.16838 12.2124 0.745438 12.8344 0.453625 13.5248C0.161687 14.2151 0 14.9746 0 15.7716C0 16.5685 0.161687 17.328 0.453562 18.0183C0.745375 18.7086 1.16831 19.3307 1.69062 19.8527C2.21287 20.3747 2.8345 20.7976 3.525 21.0893C4.2155 21.3814 4.97456 21.5431 5.7715 21.5431C6.56869 21.5431 7.32756 21.3814 8.01825 21.0893C8.70863 20.7977 9.33044 20.3748 9.85269 19.8527C10.7736 19.1059 11.1587 18.2139 11.7677 18.176C12.9219 18.3042 13.8186 18.5989 16.0002 18.5989C18.1819 18.5989 19.0784 18.3042 20.2329 18.176C20.8415 18.2139 21.227 19.106 22.1478 19.8527C22.6702 20.3747 23.2914 20.7976 23.9821 21.0893C24.6729 21.3814 25.4319 21.5431 26.2293 21.5431C27.0258 21.5431 27.7849 21.3814 28.4756 21.0893C29.166 20.7977 29.7876 20.3748 30.31 19.8527C30.8321 19.3307 31.2546 18.7086 31.5471 18.0183C31.8383 17.328 32 16.5685 32 15.7716C32 14.9746 31.8383 14.2151 31.5471 13.5248Z" />
</svg>
