<svg width="32" height="32" viewBox="0 0 32 32" xmlns="http://www.w3.org/2000/svg">
<g clip-path="url(#clip0_129_45)">
<path d="M13.1994 8.88094C15.5263 8.88094 17.4125 7.01934 17.4125 4.72295C17.4125 2.42655 15.5263 0.564957 13.1994 0.564957C10.8726 0.564957 8.98627 2.42655 8.98627 4.72295C8.98627 7.01934 10.8726 8.88094 13.1994 8.88094Z" />
<path d="M29.7466 26.9203H29.7436L14.8055 26.9308L15.7606 26.5182C15.313 26.4402 14.8743 26.2115 14.7576 26.1544C14.6705 26.1115 12.9918 25.2763 11.2548 23.5905L7.04238 25.4952C6.91812 23.1729 7.27912 20.8158 8.03728 18.7696C7.56026 17.4863 7.26702 16.004 7.3215 14.3316C7.44525 18.1014 9.21242 20.7577 10.9063 22.4514C13.2645 24.8091 15.9506 25.7885 16.0639 25.8292C16.231 25.8889 16.402 25.9171 16.5698 25.9171C16.9344 25.9171 17.3167 25.8416 17.6142 25.6521C17.6113 25.6562 17.6089 25.6604 17.6058 25.6642L28.9404 20.5388C30.0743 20.0259 30.5779 18.691 30.0651 17.5571C29.5521 16.4231 28.2172 15.9197 27.0833 16.4324L14.975 21.9081C13.147 20.72 10.7434 18.4883 10.3753 14.8357C10.4143 14.794 10.4538 14.7525 10.4937 14.7118C11.8479 13.3281 11.8235 11.1087 10.44 9.75494C9.05639 8.40073 6.83708 8.42494 5.4832 9.80841C1.16816 14.2178 -0.852239 21.5624 0.336191 28.5195C0.628086 30.228 2.1106 31.435 3.78731 31.435C3.85928 31.435 3.93107 31.4325 4.00371 31.4283C4.0143 31.4285 4.02473 31.4288 4.03532 31.4288H4.03852L29.7497 31.4034C30.9937 31.4016 32.0016 30.4001 32.0001 29.1559C31.9987 27.9118 30.9899 26.9203 29.7466 26.9203Z" />
</g>
<defs>
<clipPath id="clip0_129_45">
<rect width="32" height="32" />
</clipPath>
</defs>
</svg>
