<svg width="32" height="32" viewBox="0 0 32 32" fill="none" xmlns="http://www.w3.org/2000/svg">
<path d="M9.56281 11.8223V9.6H28.0071V11.8223H9.56281ZM9.56281 17.3777V15.1557H28.0071V17.3777H9.56281ZM9.56281 22.9333V20.711H28.0071V22.9333H9.56281ZM5.11814 11.8223C4.81459 11.8223 4.55347 11.713 4.33481 11.4943C4.11636 11.2759 4.00714 11.0111 4.00714 10.7C4.00714 10.3889 4.11636 10.1278 4.33481 9.91667C4.55347 9.70555 4.81836 9.6 5.12947 9.6C5.44059 9.6 5.7017 9.70644 5.91281 9.91933C6.12392 10.1324 6.22947 10.3963 6.22947 10.711C6.22947 11.0148 6.12292 11.2759 5.90981 11.4943C5.69692 11.713 5.43303 11.8223 5.11814 11.8223ZM5.11814 17.3777C4.81459 17.3777 4.55347 17.2684 4.33481 17.05C4.11636 16.8316 4.00714 16.5668 4.00714 16.2557C4.00714 15.9446 4.11636 15.6834 4.33481 15.4723C4.55347 15.2612 4.81836 15.1557 5.12947 15.1557C5.44059 15.1557 5.7017 15.2621 5.91281 15.475C6.12392 15.6879 6.22947 15.9518 6.22947 16.2667C6.22947 16.5704 6.12292 16.8316 5.90981 17.05C5.69692 17.2684 5.43303 17.3777 5.11814 17.3777ZM5.11814 22.9333C4.81459 22.9333 4.55347 22.8241 4.33481 22.6057C4.11636 22.387 4.00714 22.1221 4.00714 21.811C4.00714 21.4999 4.11636 21.2388 4.33481 21.0277C4.55347 20.8166 4.81836 20.711 5.12947 20.711C5.44059 20.711 5.7017 20.8176 5.91281 21.0307C6.12392 21.2436 6.22947 21.5074 6.22947 21.8223C6.22947 22.1259 6.12292 22.387 5.90981 22.6057C5.69692 22.8241 5.43303 22.9333 5.11814 22.9333Z" fill="white"/>
</svg>
